:SAMPLES-PER-SECOND 30
:FRAME-RANGE 1-3549
:FULLY-SPECIFIED
:DEGREES
2551
root  19.97 28.1234 3.54043 -169.657 -13.841 -179.017
RightUpLeg  -61.6853 -2.76936 -1.7729
RightLeg  90.0488 0.287613 0.150024
RightFoot  -37.9612 1.03895 5.48809
RightToes  1.218e-010 1.26228e-014 -6.01869e-014
Spine  20.0571 0.864046 -1.62899
Spine1  1.82128 2.87005 -5.69787
HEad  5.28358 8.09672 -4.19702
LeftShoulder1  2.87509 -7.85749 -19.525
LeftArm  -16.3792 -29.0898 -46.296
LeftForeArm  59.9115 -53.5779 -10.4695
LeftHand  1.43724 11.1259 28.4591
RightShoulder  3.01717 7.56764 21.567
RightArm  -12.3255 34.7478 61.4085
RightForeArm  64.6509 52.5043 9.7134
RightHand  0.047848 -5.43978 -52.133
LeftUpLeg  -61.0905 12.8622 3.72395
LeftLeg  90.2789 -0.187761 -2.5616
LeftFoot  -38.0381 -0.432051 -2.7929
LeftToes  -1.43952e-010 7.51141e-011 -1.22592e-011
2552
root  19.9511 27.4066 3.35716 -170.145 -13.6448 -179.222
RightUpLeg  -62.5042 -3.31942 -1.94703
RightLeg  93.3936 0.202044 1.06551
RightFoot  -39.6894 1.01499 5.09521
RightToes  1.218e-010 1.26228e-014 -6.01869e-014
Spine  20.5259 0.910512 -1.68944
Spine1  1.55909 2.90946 -5.87611
HEad  5.34768 7.78998 -4.14618
LeftShoulder1  2.85582 -7.82554 -19.4183
LeftArm  -17.9386 -30.1219 -45.4858
LeftForeArm  63.1809 -56.3943 -11.612
LeftHand  1.46937 11.4583 27.5666
RightShoulder  2.98654 7.63931 21.0733
RightArm  -12.9101 35.9207 60.9885
RightForeArm  68.1236 54.8525 10.5494
RightHand  0.179998 -5.71917 -51.439
LeftUpLeg  -61.8516 13.5451 3.80206
LeftLeg  93.6457 0.0418645 -3.37075
LeftFoot  -39.4216 -0.530577 -3.07897
LeftToes  -1.43952e-010 7.51141e-011 -1.22592e-011
2553
root  19.9285 26.637 3.15847 -170.607 -13.7017 -179.303
RightUpLeg  -63.3552 -4.16802 -1.96467
RightLeg  96.9044 0.000808275 1.99974
RightFoot  -41.5778 0.981192 4.68878
RightToes  1.218e-010 1.26228e-014 -6.01869e-014
Spine  20.7718 0.855356 -1.56089
Spine1  1.2585 2.85014 -5.98258
HEad  5.28731 7.60294 -4.22607
LeftShoulder1  2.76492 -7.75831 -18.7004
LeftArm  -19.4326 -30.8164 -45.3216
LeftForeArm  66.0454 -59.0026 -12.8579
LeftHand  1.54322 11.893 27.0458
RightShoulder  2.95065 7.69874 20.5656
RightArm  -13.3012 36.9625 60.5615
RightForeArm  70.0706 57.0251 11.4993
RightHand  0.516638 -6.42885 -51.2503
LeftUpLeg  -63.0433 14.0378 4.24118
LeftLeg  97.5286 0.478213 -4.59918
LeftFoot  -40.0712 -0.683649 -3.61994
LeftToes  -1.43952e-010 7.51141e-011 -1.22592e-011
2554
root  19.8988 25.8437 2.93412 -171.282 -13.5012 -179.688
RightUpLeg  -63.9955 -5.0127 -2.44509
RightLeg  100.644 -0.4053 3.26668
RightFoot  -43.348 0.786021 3.78161
RightToes  1.218e-010 1.26228e-014 -6.01869e-014
Spine  21.0434 0.963183 -1.79263
Spine1  1.07007 2.88435 -6.10429
HEad  4.99814 7.51649 -4.23655
LeftShoulder1  2.71175 -7.71353 -18.2887
LeftArm  -20.6451 -31.6096 -44.7175
LeftForeArm  68.5835 -61.2584 -14.109
LeftHand  1.62373 12.3521 26.6012
RightShoulder  2.94441 7.77065 20.3184
RightArm  -13.741 38.0129 59.8134
RightForeArm  72.4419 59.0376 12.4554
RightHand  0.673521 -6.80172 -49.9804
LeftUpLeg  -63.8516 14.9704 4.48518
LeftLeg  101.492 1.18086 -6.15287
LeftFoot  -40.5037 -0.760151 -3.8684
LeftToes  -1.43952e-010 7.51141e-011 -1.22592e-011
2555
root  19.8619 25.0328 2.68998 -172.159 -13.3384 -179.992
RightUpLeg  -64.4801 -5.96458 -3.00491
RightLeg  104.565 -1.10373 4.85976
RightFoot  -44.8137 0.598179 3.01817
RightToes  1.218e-010 1.26228e-014 -6.01869e-014
Spine  21.266 1.07201 -1.87324
Spine1  0.967379 2.92957 -6.24538
HEad  4.50867 7.51388 -4.379
LeftShoulder1  2.63768 -7.67208 -17.6583
LeftArm  -21.7322 -32.1965 -44.322
LeftForeArm  71.2064 -63.0304 -15.1904
LeftHand  1.64737 12.5897 26.1269
RightShoulder  2.92236 7.81575 19.9893
RightArm  -14.3239 38.8372 59.1994
RightForeArm  75.1896 60.784 13.3456
RightHand  0.876727 -7.27811 -49.1637
LeftUpLeg  -64.3445 16.0823 4.97001
LeftLeg  105.41 2.17659 -7.87371
LeftFoot  -40.9295 -0.737385 -3.73444
LeftToes  -1.43952e-010 7.51141e-011 -1.22592e-011
2556
root  19.8093 24.1986 2.42962 -173.083 -13.2747 179.752
RightUpLeg  -65.1089 -7.32791 -3.66432
RightLeg  108.766 -2.26261 6.89863
RightFoot  -45.6269 0.237566 1.79271
RightToes  1.218e-010 1.26228e-014 -6.01869e-014
Spine  21.353 1.1522 -1.89459
Spine1  0.853262 2.90355 -6.21925
HEad  3.99912 7.67467 -4.62125
LeftShoulder1  2.58061 -7.56238 -17.3517
LeftArm  -22.4678 -32.6681 -43.653
LeftForeArm  73.1627 -64.512 -16.2332
LeftHand  1.69366 13.0128 25.4104
RightShoulder  2.88634 7.82373 19.6201
RightArm  -14.4198 39.5591 58.542
RightForeArm  76.6539 62.5354 14.436
RightHand  1.09703 -7.81895 -48.2069
LeftUpLeg  -64.7899 17.1979 5.70717
LeftLeg  109.32 3.58046 -9.88285
LeftFoot  -41.1874 -0.745311 -3.73662
LeftToes  -1.43952e-010 7.51141e-011 -1.22592e-011
2557
root  19.747 23.3698 2.14834 -174.059 -13.2308 179.532
RightUpLeg  -65.5849 -8.41153 -4.50094
RightLeg  112.898 -3.60698 8.54352
RightFoot  -46.2495 0.00482266 1.03306
RightToes  1.218e-010 1.26228e-014 -6.01869e-014
Spine  21.3498 1.27302 -1.8873
Spine1  0.80135 2.89509 -6.10709
HEad  3.52251 7.83477 -4.86415
LeftShoulder1  2.56149 -7.53006 -17.237
LeftArm  -22.9103 -33.0277 -42.701
LeftForeArm  74.8165 -65.9671 -17.4107
LeftHand  1.67404 13.1249 24.794
RightShoulder  2.83767 7.72319 19.3981
RightArm  -14.5548 40.2879 57.8186
RightForeArm  78.9461 64.1465 15.5051
RightHand  1.21742 -8.1684 -47.0438
LeftUpLeg  -64.9629 18.2451 6.62338
LeftLeg  113.03 5.12727 -11.5107
LeftFoot  -41.4372 -0.667243 -3.41995
LeftToes  -1.43952e-010 7.51141e-011 -1.22592e-011
2558
root  19.6674 22.5601 1.87557 -175.284 -13.8392 178.888
RightUpLeg  -65.4236 -10.083 -6.22264
RightLeg  116.93 -5.39965 10.3946
RightFoot  -46.7997 -0.267086 0.178138
RightToes  1.218e-010 1.26228e-014 -6.01869e-014
Spine  21.8923 1.15178 -2.20147
Spine1  0.452606 2.49418 -5.92324
HEad  3.13332 7.99006 -4.91076
LeftShoulder1  2.47059 -7.37704 -16.6796
LeftArm  -23.2859 -33.2205 -42.2428
LeftForeArm  76.6949 -67.3386 -18.6396
LeftHand  1.64872 13.2294 24.1381
RightShoulder  2.82662 7.89341 18.8699
RightArm  -15.1111 40.7539 56.8797
RightForeArm  81.134 65.7137 16.6884
RightHand  1.39519 -8.6384 -46.3042
LeftUpLeg  -64.7773 18.1987 7.23715
LeftLeg  116.491 6.67923 -12.6915
LeftFoot  -41.4485 -0.625505 -3.26379
LeftToes  -1.43952e-010 7.51141e-011 -1.22592e-011
2559
root  19.6139 21.7214 1.57629 -176.336 -13.7001 178.744
RightUpLeg  -65.5705 -10.5899 -7.29135
RightLeg  120.809 -7.0714 11.4783
RightFoot  -47.4005 -0.403386 -0.230077
RightToes  1.218e-010 1.26228e-014 -6.01869e-014
Spine  21.759 1.40363 -2.07122
Spine1  0.39323 2.64481 -5.89327
HEad  2.90461 8.01924 -4.93872
LeftShoulder1  2.41809 -7.35332 -16.1988
LeftArm  -23.4728 -33.4994 -41.7552
LeftForeArm  79.0313 -68.6956 -19.981
LeftHand  1.65879 13.5343 23.4182
RightShoulder  2.78233 7.8588 18.5246
RightArm  -15.4138 41.2002 55.9241
RightForeArm  83.0529 67.3385 18.1218
RightHand  1.63012 -9.23302 -45.8569
LeftUpLeg  -64.5874 18.9448 8.71843
LeftLeg  119.933 8.64713 -14.0955
LeftFoot  -41.676 -0.671698 -3.41384
LeftToes  -1.43952e-010 7.51141e-011 -1.22592e-011
2560
root  19.5635 20.9103 1.27919 -177.392 -13.6297 178.541
RightUpLeg  -65.5938 -10.9576 -8.671
RightLeg  124.493 -8.9831 12.537
RightFoot  -47.7282 -0.660962 -1.00415
RightToes  1.218e-010 1.26228e-014 -6.01869e-014
Spine  21.768 1.61452 -1.98073
Spine1  0.222216 2.75283 -5.95128
HEad  2.7398 8.07406 -4.99212
LeftShoulder1  2.35696 -7.26747 -15.7687
LeftArm  -23.7635 -33.7899 -41.1113
LeftForeArm  80.8734 -70.1052 -21.649
LeftHand  1.64578 13.6308 22.9897
RightShoulder  2.74127 7.79333 18.2822
RightArm  -15.6954 41.7436 55.131
RightForeArm  85.1472 68.8829 19.6815
RightHand  1.8125 -9.73099 -45.2547
LeftUpLeg  -64.1695 19.3304 10.3859
LeftLeg  123.115 10.7353 -15.3216
LeftFoot  -41.8716 -0.697952 -3.49166
LeftToes  -1.43952e-010 7.51141e-011 -1.22592e-011
2561
root  19.5257 20.1093 0.987266 -178.253 -13.457 178.484
RightUpLeg  -65.7389 -10.9056 -9.77817
RightLeg  127.986 -10.7503 13.1209
RightFoot  -48.3037 -0.706045 -1.10939
RightToes  1.218e-010 1.26228e-014 -6.01869e-014
Spine  21.5252 1.8156 -1.73535
Spine1  0.159618 2.92523 -6.10124
HEad  2.23674 8.14813 -5.14425
LeftShoulder1  2.31762 -7.15813 -15.6123
LeftArm  -24.3406 -34.3005 -39.9772
LeftForeArm  83.0153 -71.6494 -23.8009
LeftHand  1.62149 13.8321 22.1621
RightShoulder  2.6948 7.76575 17.8929
RightArm  -16.2198 42.3154 54.6206
RightForeArm  87.1798 70.1802 21.1743
RightHand  1.96998 -10.2167 -44.3748
LeftUpLeg  -63.8698 19.6887 12.2157
LeftLeg  126.187 12.6799 -16.0415
LeftFoot  -42.0708 -0.775358 -3.75407
LeftToes  -1.43952e-010 7.51141e-011 -1.22592e-011
